{"title":"Power Rangers Super Megaforce S21 E20 Legendary Battle Extended ","uid":11575573,"size":728826328,"categoryP":"video","categoryS":"tv_shows","magnet":"?xt=urn:btih:2351732fb6a5af3f0b46f7c62ed54c3964e7b164&amp;dn=Power+Rangers+Super+Megaforce+S21+E20+Legendary+Battle+Extended+&amp;tr=udp%3A%2F%2Ftracker.openbittorrent.com%3A80&amp;tr=udp%3A%2F%2Fopen.demonii.com%3A1337&amp;tr=udp%3A%2F%2Ftracker.coppersurfer.tk%3A6969&amp;tr=udp%3A%2F%2Fexodus.desync.com%3A6969","seeders":7,"leechers":0,"uploader":"jmanwf","files":-1,"time":1417068674,"description":"The Emperor unleashes another massive attack on Earth and nearly defeats the Rangers, but against all odds they remain defiant and are rewarded with the help of all the Legendary Rangers from years past.\n\n\nFormat : MPEG-4\nFormat profile : Base Media / Version 2\nCodec ID : mp42\nFile size : 695 MiB\nDuration : 54mn 30s\nOverall bit rate mode : Variable\nOverall bit rate : 1 783 Kbps\nWriting application : HandBrake 0.10.0 2014112200\n\nVideo\nID : 1\nFormat : AVC\nFormat/Info : Advanced Video Codec\nFormat profile : &lt;a class=&quot;__cf_email__&quot; href=&quot;/cdn-cgi/l/email-protection&quot; data-cfemail=&quot;91dcf0f8ffd1dda4bfa1&quot;&gt;[email&amp;#160;protected]&lt;/a&gt;&lt;script cf-hash='f9e31' type=&quot;text/javascript&quot;&gt;\n/* &lt;![CDATA[ */!function(){try{var t=&quot;currentScript&quot;in document?document.currentScript:function(){for(var t=document.getElementsByTagName(&quot;script&quot;),e=t.length;e--;)if(t[e].getAttribute(&quot;cf-hash&quot;))return t[e]}();if(t&amp;&amp;t.previousSibling){var e,r,n,i,c=t.previousSibling,a=c.getAttribute(&quot;data-cfemail&quot;);if(a){for(e=&quot;&quot;,r=parseInt(a.substr(0,2),16),n=2;a.length-n;n+=2)i=parseInt(a.substr(n,2),16)^r,e+=String.fromCharCode(i);e=document.createTextNode(e),c.parentNode.replaceChild(e,c)}}}catch(u){}}();/* ]]&gt; */&lt;/script&gt;\nFormat settings, CABAC : Yes\nFormat settings, ReFrames : 8 frames\nCodec ID : avc1\nCodec ID/Info : Advanced Video Coding\nDuration : 54mn 30s\nBit rate : 1 647 Kbps\nWidth : 704 pixels\nHeight : 480 pixels\nDisplay aspect ratio : 16:9\nFrame rate mode : Variable\nFrame rate : 23.976 fps\nMinimum frame rate : 19.978 fps\nMaximum frame rate : 29.970 fps\nStandard : NTSC\nColor space : YUV\nChroma subsampling : 4:2:0\nBit depth : 8 bits\nScan type : Progressive\nBits/(Pixel*Frame) : 0.203\nStream size : 642 MiB (92%)\nWriting library : x264 core 142 r2479 dd79a61\n\nColor primaries : BT.601 NTSC\nTransfer characteristics : BT.709\nMatrix coefficients : BT.601\n\nAudio\nID : 2\nFormat : AAC\nFormat/Info : Advanced Audio Codec\nFormat profile : LC\nCodec ID : 40\nDuration : 54mn 30s\nBit rate mode : Variable\nBit rate : 128 Kbps\nChannel(s) : 2 channels\nChannel positions : Front: L R\nSampling rate : 48.0 KHz\nCompression mode : Lossy\nStream size : 50.0 MiB (7%)\nTitle : Stereo\nLanguage : English","torrent":{"xt":"urn:btih:2351732fb6a5af3f0b46f7c62ed54c3964e7b164","amp;dn":"Power+Rangers+Super+Megaforce+S21+E20+Legendary+Battle+Extended+","amp;tr":["udp%3A%2F%2Ftracker.openbittorrent.com%3A80","udp%3A%2F%2Fopen.demonii.com%3A1337","udp%3A%2F%2Ftracker.coppersurfer.tk%3A6969","udp%3A%2F%2Fexodus.desync.com%3A6969"],"infoHash":"2351732fb6a5af3f0b46f7c62ed54c3964e7b164","infoHashBuffer":{"type":"Buffer","data":[35,81,115,47,182,165,175,63,11,70,247,198,46,213,76,57,100,231,177,100]},"announce":[],"urlList":[]}}